<svg width="306" height="300" viewBox="0 0 306 300" fill="none" xmlns="http://www.w3.org/2000/svg">
<g clip-path="url(#clip0)">
<path d="M108.878 172.254H14.5632C6.52016 172.254 0 178.789 0 186.851V186.851C0 194.913 6.52016 201.449 14.5632 201.449H108.878C116.921 201.449 123.442 194.913 123.442 186.851C123.442 178.789 116.921 172.254 108.878 172.254Z" fill="#DAEFF7"/>
<path d="M176.579 230.644H35.1004C27.0574 230.644 20.5372 237.18 20.5372 245.242V245.242C20.5372 253.304 27.0574 259.839 35.1004 259.839H176.579C184.622 259.839 191.143 253.304 191.143 245.242C191.143 237.18 184.622 230.644 176.579 230.644Z" fill="#DAEFF7"/>
<path d="M253.017 230.644H229.066C221.023 230.644 214.503 237.18 214.503 245.242V245.242C214.503 253.304 221.023 259.839 229.066 259.839H253.017C261.06 259.839 267.581 253.304 267.581 245.242V245.242C267.581 237.18 261.06 230.644 253.017 230.644Z" fill="#DAEFF7"/>
<path d="M119.433 216.047C119.433 212.175 120.967 208.462 123.698 205.725C126.429 202.987 130.133 201.449 133.996 201.449H51.8287C51.5612 201.449 51.2959 201.457 51.032 201.472C54.7509 201.676 58.2503 203.3 60.8109 206.011C63.3715 208.722 64.7985 212.313 64.7987 216.047C64.7985 219.78 63.3714 223.371 60.8109 226.082C58.2503 228.793 54.7509 230.417 51.032 230.621C51.2958 230.636 51.5613 230.644 51.8287 230.644H133.996C130.133 230.644 126.429 229.106 123.698 226.368C120.967 223.631 119.433 219.918 119.433 216.047Z" fill="#DAEFF7"/>
<path d="M291.437 123.995H149.958C141.915 123.995 135.395 130.531 135.395 138.593V138.593C135.395 146.655 141.915 153.191 149.958 153.191H291.437C299.48 153.191 306 146.655 306 138.593C306 130.531 299.48 123.995 291.437 123.995Z" fill="#DAEFF7"/>
<path d="M276.866 65.6052H134.278C126.235 65.6052 119.715 72.1408 119.715 80.2028V80.2028C119.715 88.2648 126.235 94.8003 134.278 94.8003H276.866C284.909 94.8003 291.429 88.2648 291.429 80.2028C291.429 72.1408 284.909 65.6052 276.866 65.6052Z" fill="#DAEFF7"/>
<path d="M82.5646 65.6052H58.6135C50.5705 65.6052 44.0503 72.1408 44.0503 80.2028V80.2028C44.0503 88.2648 50.5705 94.8003 58.6135 94.8003H82.5646C90.6076 94.8003 97.1278 88.2648 97.1278 80.2028V80.2028C97.1278 72.1408 90.6076 65.6052 82.5646 65.6052Z" fill="#DAEFF7"/>
<path d="M252.922 109.398C252.922 105.526 254.457 101.813 257.188 99.0759C259.919 96.3383 263.623 94.8003 267.486 94.8003H202.217C198.355 94.8003 194.651 96.3383 191.92 99.0759C189.188 101.813 187.654 105.526 187.654 109.398C187.654 111.315 188.031 113.213 188.763 114.984C189.494 116.755 190.567 118.364 191.92 119.72C193.272 121.075 194.877 122.151 196.644 122.884C198.411 123.618 200.305 123.995 202.217 123.995H267.486C265.573 123.995 263.679 123.618 261.913 122.884C260.146 122.151 258.54 121.075 257.188 119.72C255.836 118.364 254.763 116.755 254.031 114.984C253.299 113.213 252.922 111.315 252.922 109.398Z" fill="#DAEFF7"/>
<path d="M147.092 28.1882C143.99 28.1882 141.014 29.4234 138.821 31.6222C136.627 33.821 135.395 36.8033 135.395 39.9128V152.052C135.395 155.162 136.627 158.144 138.821 160.343C141.014 162.542 143.99 163.777 147.092 163.777H235.193C238.295 163.777 241.271 162.542 243.464 160.343C245.658 158.144 246.89 155.162 246.89 152.052V39.9128L235.193 28.1882H147.092Z" fill="#F4F4F4"/>
<path d="M147.092 28.1882C143.99 28.1882 141.014 29.4234 138.821 31.6222C136.627 33.821 135.395 36.8033 135.395 39.9128V152.052C135.395 155.162 136.627 158.144 138.821 160.343C141.014 162.542 143.99 163.777 147.092 163.777H235.193C238.295 163.777 241.271 162.542 243.464 160.343C245.658 158.144 246.89 155.162 246.89 152.052V39.9128L235.193 28.1882H147.092Z" fill="url(#paint0_linear)"/>
<path d="M235.193 28.1881V39.8921L246.89 39.9128L235.193 28.1881Z" fill="#B2B2B2"/>
<path d="M151.445 83.9447C153.507 83.9447 155.178 82.2694 155.178 80.2028C155.178 78.1362 153.507 76.4608 151.445 76.4608C149.383 76.4608 147.712 78.1362 147.712 80.2028C147.712 82.2694 149.383 83.9447 151.445 83.9447Z" fill="#329DF7"/>
<path d="M151.445 61.3665C153.507 61.3665 155.178 59.6912 155.178 57.6246C155.178 55.558 153.507 53.8827 151.445 53.8827C149.383 53.8827 147.712 55.558 147.712 57.6246C147.712 59.6912 149.383 61.3665 151.445 61.3665Z" fill="#329DF7"/>
<path d="M151.611 107.919C153.673 107.919 155.344 106.244 155.344 104.177C155.344 102.111 153.673 100.435 151.611 100.435C149.549 100.435 147.878 102.111 147.878 104.177C147.878 106.244 149.549 107.919 151.611 107.919Z" fill="#329DF7"/>
<path d="M164.264 80.2028H230.216" stroke="#329DF7" stroke-width="3" stroke-miterlimit="10"/>
<path d="M164.264 57.6246H205.572" stroke="#329DF7" stroke-width="3" stroke-miterlimit="10"/>
<path d="M210.389 57.6246H230.216" stroke="#329DF7" stroke-width="3" stroke-miterlimit="10"/>
<path d="M164.43 104.177H205.738" stroke="#329DF7" stroke-width="3" stroke-miterlimit="10"/>
<path d="M210.555 104.177H230.382" stroke="#329DF7" stroke-width="3" stroke-miterlimit="10"/>
<path d="M208.339 131.53H112.309V125.902C112.309 124.723 112.077 123.556 111.627 122.467C111.177 121.378 110.517 120.388 109.686 119.555C108.854 118.722 107.867 118.06 106.781 117.609C105.694 117.158 104.53 116.926 103.354 116.926H72.8423C70.4674 116.926 68.1897 117.872 66.5104 119.555C64.831 121.238 63.8876 123.521 63.8876 125.902V201.566C63.8876 203.636 64.2945 205.687 65.085 207.6C65.8755 209.513 67.0342 211.251 68.495 212.715C69.9557 214.179 71.6898 215.341 73.5984 216.133C75.5069 216.926 77.5524 217.333 79.6182 217.333H208.339C210.405 217.333 212.45 216.926 214.359 216.133C216.268 215.341 218.002 214.179 219.462 212.715C220.923 211.251 222.082 209.513 222.872 207.6C223.663 205.687 224.07 203.636 224.07 201.566V147.298C224.07 143.116 222.412 139.105 219.462 136.148C216.512 133.191 212.511 131.53 208.339 131.53Z" fill="#6AB4F6"/>
<path d="M208.339 131.53H112.309V125.902C112.309 124.723 112.077 123.556 111.627 122.467C111.177 121.378 110.517 120.388 109.686 119.555C108.854 118.722 107.867 118.06 106.781 117.609C105.694 117.158 104.53 116.926 103.354 116.926H72.8423C70.4674 116.926 68.1897 117.872 66.5104 119.555C64.831 121.238 63.8876 123.521 63.8876 125.902V201.566C63.8876 203.636 64.2945 205.687 65.085 207.6C65.8755 209.513 67.0342 211.251 68.495 212.715C69.9557 214.179 71.6898 215.341 73.5984 216.133C75.5069 216.926 77.5524 217.333 79.6182 217.333H208.339C210.405 217.333 212.45 216.926 214.359 216.133C216.268 215.341 218.002 214.179 219.462 212.715C220.923 211.251 222.082 209.513 222.872 207.6C223.663 205.687 224.07 203.636 224.07 201.566V147.298C224.07 143.116 222.412 139.105 219.462 136.148C216.512 133.191 212.511 131.53 208.339 131.53Z" fill="url(#paint1_linear)"/>
<path d="M112.309 131.53V125.902C112.309 124.723 112.077 123.556 111.627 122.467C111.177 121.378 110.517 120.388 109.686 119.555C108.854 118.722 107.867 118.06 106.781 117.609C105.694 117.158 104.53 116.926 103.354 116.926H72.8423C70.4674 116.926 68.1897 117.872 66.5104 119.555C64.831 121.238 63.8876 123.521 63.8876 125.902V131.53H112.309Z" fill="#329DF7"/>
<path d="M112.421 131.604V125.976C112.421 124.797 112.19 123.63 111.74 122.541C111.289 121.452 110.63 120.462 109.798 119.629C108.967 118.795 107.98 118.134 106.893 117.683C105.807 117.232 104.642 117 103.466 117H72.9547C70.5798 117 68.3021 117.946 66.6228 119.629C64.9434 121.312 64 123.595 64 125.976V131.604H112.421Z" fill="url(#paint2_linear)"/>
<path d="M24.9041 139.201C29.1305 139.201 32.5566 135.767 32.5566 131.53C32.5566 127.294 29.1305 123.86 24.9041 123.86C20.6778 123.86 17.2516 127.294 17.2516 131.53C17.2516 135.767 20.6778 139.201 24.9041 139.201Z" stroke="#DAEFF7" stroke-width="5" stroke-miterlimit="10"/>
<path d="M273.916 199.588C278.142 199.588 281.569 196.154 281.569 191.917C281.569 187.681 278.142 184.247 273.916 184.247C269.69 184.247 266.264 187.681 266.264 191.917C266.264 196.154 269.69 199.588 273.916 199.588Z" stroke="#DAEFF7" stroke-width="6" stroke-miterlimit="10"/>
<path d="M112.309 11.6835C115.184 11.6835 117.515 9.34725 117.515 6.46539C117.515 3.58353 115.184 1.24731 112.309 1.24731C109.434 1.24731 107.103 3.58353 107.103 6.46539C107.103 9.34725 109.434 11.6835 112.309 11.6835Z" stroke="#DAEFF7" stroke-width="3" stroke-miterlimit="10"/>
<path d="M205.183 298.129C208.058 298.129 210.389 295.793 210.389 292.911C210.389 290.029 208.058 287.693 205.183 287.693C202.308 287.693 199.977 290.029 199.977 292.911C199.977 295.793 202.308 298.129 205.183 298.129Z" stroke="#DAEFF7" stroke-width="3" stroke-miterlimit="10"/>
</g>
<defs>
<linearGradient id="paint0_linear" x1="191.142" y1="28.1882" x2="191.142" y2="163.777" gradientUnits="userSpaceOnUse">
<stop stop-color="white" stop-opacity="0"/>
<stop offset="1" stop-color="#CECECE" stop-opacity="0.8"/>
</linearGradient>
<linearGradient id="paint1_linear" x1="63.8876" y1="167.13" x2="224.07" y2="167.13" gradientUnits="userSpaceOnUse">
<stop stop-color="#3DDEED"/>
<stop offset="1" stop-color="#3DDEED" stop-opacity="0"/>
</linearGradient>
<linearGradient id="paint2_linear" x1="64" y1="126" x2="132.5" y2="125.5" gradientUnits="userSpaceOnUse">
<stop stop-color="#3DDEED"/>
<stop offset="1" stop-color="#329DF7" stop-opacity="0"/>
</linearGradient>
<clipPath id="clip0">
<rect width="306" height="300" fill="white"/>
</clipPath>
</defs>
</svg>
