<svg width="753" height="484" viewBox="0 0 753 484" fill="none" xmlns="http://www.w3.org/2000/svg">
<g clip-path="url(#clip0)">
<path d="M695.441 401.713H570.012C560.282 401.713 552.394 409.606 552.394 419.342C552.394 429.077 560.282 436.97 570.012 436.97H695.441C705.172 436.97 713.06 429.077 713.06 419.342C713.06 409.606 705.172 401.713 695.441 401.713Z" fill="#DAEFF7"/>
<path d="M682.55 384.085C682.55 379.41 684.406 374.926 687.71 371.62C691.014 368.314 695.496 366.457 700.168 366.457H632.1C636.772 366.457 641.254 368.314 644.558 371.62C647.862 374.926 649.718 379.41 649.718 384.085C649.718 388.76 647.862 393.244 644.558 396.55C641.254 399.856 636.772 401.713 632.1 401.713H700.168C695.496 401.713 691.014 399.856 687.71 396.55C684.406 393.244 682.55 388.76 682.55 384.085V384.085Z" fill="#DAEFF7"/>
<path d="M656.593 331.252H586.98C577.25 331.252 569.362 339.144 569.362 348.88C569.362 358.616 577.25 366.509 586.98 366.509H656.593C666.324 366.509 674.212 358.616 674.212 348.88C674.212 339.144 666.324 331.252 656.593 331.252Z" fill="#DAEFF7"/>
<path d="M318.369 324.346H226.033C216.303 324.346 208.415 332.239 208.415 341.975C208.415 351.711 216.303 359.603 226.033 359.603H318.369C328.099 359.603 335.987 351.711 335.987 341.975C335.987 332.239 328.099 324.346 318.369 324.346Z" fill="#DAEFF7"/>
<path d="M451.841 401.309H315.244C305.514 401.309 297.626 409.202 297.626 418.938C297.626 428.673 305.514 436.566 315.244 436.566H451.841C461.571 436.566 469.459 428.673 469.459 418.938C469.459 409.202 461.571 401.309 451.841 401.309Z" fill="#DAEFF7"/>
<path d="M433.774 384.111C433.774 380.221 435.06 376.441 437.431 373.358C439.802 370.276 443.125 368.064 446.882 367.068C445.411 366.679 443.895 366.482 442.373 366.483H400.192C404.864 366.483 409.345 368.34 412.65 371.646C415.954 374.952 417.81 379.436 417.81 384.111C417.81 388.786 415.954 393.27 412.65 396.576C409.345 399.882 404.864 401.739 400.192 401.739H442.373C443.895 401.74 445.41 401.543 446.882 401.154C443.124 400.157 439.802 397.946 437.431 394.863C435.06 391.781 433.774 388.001 433.774 384.111V384.111Z" fill="#DAEFF7"/>
<path d="M473.318 331.226H403.704C393.974 331.226 386.086 339.118 386.086 348.854C386.086 358.59 393.974 366.483 403.704 366.483H473.318C483.048 366.483 490.936 358.59 490.936 348.854C490.936 339.118 483.048 331.226 473.318 331.226Z" fill="#DAEFF7"/>
<path d="M305.96 307.148C305.96 302.473 307.816 297.989 311.12 294.683C314.424 291.377 318.906 289.52 323.578 289.52H271.153C266.481 289.52 261.999 291.377 258.695 294.683C255.391 297.989 253.535 302.473 253.535 307.148V307.148C253.535 311.824 255.391 316.307 258.695 319.613C261.999 322.919 266.481 324.777 271.153 324.777H323.578C318.906 324.777 314.424 322.919 311.12 319.613C307.816 316.307 305.96 311.824 305.96 307.148V307.148Z" fill="#DAEFF7"/>
<path d="M327.037 254.314H234.702C224.972 254.314 217.084 262.206 217.084 271.942C217.084 281.678 224.972 289.57 234.702 289.57H327.037C336.768 289.57 344.656 281.678 344.656 271.942C344.656 262.206 336.768 254.314 327.037 254.314Z" fill="#DAEFF7"/>
<path d="M183.492 401.687H58.0621C48.3318 401.687 40.4439 409.58 40.4439 419.315C40.4439 429.051 48.3318 436.944 58.0621 436.944H183.492C193.222 436.944 201.11 429.051 201.11 419.315C201.11 409.58 193.222 401.687 183.492 401.687Z" fill="#DAEFF7"/>
<path d="M170.6 384.059C170.6 379.383 172.457 374.9 175.761 371.594C179.065 368.288 183.546 366.43 188.219 366.43H120.15C124.823 366.43 129.304 368.288 132.608 371.594C135.912 374.9 137.768 379.383 137.768 384.059C137.768 388.734 135.912 393.218 132.608 396.524C129.304 399.83 124.823 401.687 120.15 401.687H188.219C183.546 401.687 179.065 399.83 175.761 396.524C172.457 393.218 170.6 388.734 170.6 384.059V384.059Z" fill="#DAEFF7"/>
<path d="M144.644 331.226H75.0301C65.2998 331.226 57.4118 339.118 57.4118 348.854C57.4118 358.59 65.2998 366.483 75.0301 366.483H144.644C154.374 366.483 162.262 358.59 162.262 348.854C162.262 339.118 154.374 331.226 144.644 331.226Z" fill="#DAEFF7"/>
<path d="M170.161 88.479C167.595 88.4768 165.06 89.0471 162.742 90.1486C160.424 91.2501 158.38 92.8549 156.76 94.8464L156.759 94.8461L7.89473 269.363L7.89839 269.371C4.03476 273.427 1.44605 278.529 0.453212 284.044C-0.539626 289.559 0.107079 295.244 2.31314 300.395C4.51921 305.545 8.1876 309.935 12.8635 313.019C17.5394 316.103 23.0171 317.746 28.6176 317.744C29.1626 317.744 29.7032 317.726 30.2407 317.696L30.2416 317.698H129.789C129.789 317.698 149.36 316.371 149.36 328.697V387.939C149.36 392.994 151.367 397.841 154.939 401.416C158.511 404.99 163.356 406.998 168.408 406.998C173.46 406.998 178.305 404.99 181.877 401.416C185.45 397.841 187.457 392.994 187.457 387.939V105.785C187.457 101.195 185.634 96.7933 182.391 93.5478C179.147 90.3024 174.748 88.4791 170.161 88.479V88.479ZM146.702 259.875C146.702 262.155 145.796 264.343 144.185 265.955C142.573 267.568 140.387 268.474 138.108 268.474H82.0699C80.4908 268.476 78.9419 268.042 77.5935 267.22C76.2451 266.397 75.1494 265.219 74.4269 263.814C73.7045 262.409 73.3833 260.832 73.4987 259.257C73.6141 257.681 74.1616 256.168 75.081 254.883L75.0781 254.877L75.1575 254.781C75.3311 254.545 75.5166 254.319 75.7133 254.102L130.54 187.176C131.065 186.203 131.772 185.34 132.622 184.635L132.625 184.631L132.626 184.631C133.882 183.59 135.409 182.928 137.027 182.722C138.645 182.517 140.289 182.776 141.765 183.471C143.241 184.166 144.489 185.266 145.364 186.644C146.238 188.022 146.702 189.621 146.702 191.253L146.702 259.875Z" fill="url(#paint0_linear)"/>
<path d="M682.825 88.479C680.258 88.4768 677.724 89.0471 675.406 90.1486C673.087 91.2501 671.044 92.8549 669.424 94.8464L669.423 94.8461L520.559 269.363L520.562 269.371C516.699 273.427 514.11 278.529 513.117 284.044C512.124 289.559 512.771 295.244 514.977 300.395C517.183 305.545 520.852 309.935 525.527 313.019C530.203 316.103 535.681 317.746 541.281 317.744C541.827 317.744 542.367 317.726 542.905 317.696L542.905 317.698H642.453C642.453 317.698 662.024 316.371 662.024 328.697V387.939C662.024 392.994 664.031 397.841 667.603 401.416C671.175 404.99 676.02 406.998 681.072 406.998C686.124 406.998 690.969 404.99 694.541 401.416C698.114 397.841 700.12 392.994 700.12 387.939V105.785C700.12 101.195 698.298 96.7932 695.055 93.5478C691.811 90.3024 687.412 88.4791 682.825 88.479V88.479ZM659.366 259.875C659.366 262.155 658.46 264.343 656.849 265.955C655.237 267.568 653.051 268.474 650.772 268.474H594.734C593.155 268.476 591.606 268.042 590.257 267.22C588.909 266.397 587.813 265.219 587.091 263.814C586.368 262.409 586.047 260.832 586.163 259.257C586.278 257.681 586.825 256.168 587.745 254.883L587.742 254.877L587.821 254.781C587.995 254.545 588.181 254.319 588.377 254.102L643.204 187.176C643.729 186.203 644.436 185.341 645.286 184.635L645.289 184.631L645.29 184.631C646.546 183.59 648.073 182.928 649.691 182.722C651.309 182.517 652.953 182.777 654.429 183.471C655.905 184.166 657.153 185.266 658.028 186.644C658.902 188.022 659.366 189.621 659.366 191.253L659.366 259.875Z" fill="url(#paint1_linear)"/>
<path d="M368.714 75.0333C299.971 75.0333 244.244 153.511 244.244 250.318C244.244 347.125 299.971 425.603 368.714 425.603C437.456 425.603 493.183 347.125 493.183 250.318C493.183 153.511 437.456 75.0333 368.714 75.0333ZM368.714 386.346C318.957 386.346 278.621 325.444 278.621 250.318C278.621 175.192 318.957 114.29 368.714 114.29C418.471 114.29 458.806 175.192 458.806 250.318C458.806 325.444 418.471 386.346 368.714 386.346Z" fill="url(#paint2_linear)"/>
<path d="M451.395 152.772H512.664V143.566C512.664 132.464 503.57 123.297 492.481 123.69C487.682 123.864 483.117 125.806 479.661 129.142C476.205 132.479 474.103 136.975 473.758 141.767C473.757 141.779 473.753 141.791 473.746 141.8C473.739 141.81 473.729 141.817 473.717 141.821C473.706 141.824 473.694 141.825 473.682 141.821C473.671 141.818 473.661 141.811 473.653 141.802C471.975 139.834 469.735 138.428 467.233 137.774C464.732 137.119 462.09 137.248 459.664 138.143C457.238 139.038 455.145 140.655 453.666 142.778C452.188 144.9 451.395 147.425 451.395 150.012C451.395 150.128 451.401 150.242 451.404 150.357L451.395 150.364L451.395 152.772Z" fill="url(#paint3_linear)"/>
<path d="M330.095 114.733H256.727V103.709C256.727 90.415 267.616 79.4373 280.895 79.9081C286.642 80.1163 292.109 82.4413 296.247 86.4366C300.386 90.432 302.903 95.8161 303.317 101.555C303.317 101.569 303.322 101.583 303.331 101.595C303.339 101.606 303.351 101.615 303.365 101.619C303.378 101.624 303.393 101.624 303.407 101.62C303.42 101.616 303.433 101.608 303.442 101.597C305.451 99.2398 308.134 97.5562 311.13 96.7727C314.125 95.9893 317.289 96.1437 320.194 97.2152C323.099 98.2867 325.605 100.224 327.376 102.765C329.146 105.306 330.096 108.33 330.095 111.428C330.095 111.567 330.089 111.704 330.085 111.842L330.095 111.849V114.733Z" fill="url(#paint4_linear)"/>
<path d="M253.942 168.043H217.084V162.505C217.084 155.826 222.555 150.312 229.225 150.548C232.112 150.653 234.859 151.821 236.938 153.828C239.017 155.835 240.282 158.54 240.489 161.423C240.49 161.43 240.492 161.437 240.496 161.443C240.501 161.449 240.507 161.453 240.514 161.455C240.52 161.457 240.528 161.457 240.535 161.455C240.542 161.453 240.548 161.449 240.552 161.444C241.562 160.26 242.91 159.414 244.414 159.02C245.919 158.627 247.509 158.704 248.968 159.243C250.427 159.781 251.687 160.754 252.576 162.031C253.466 163.307 253.942 164.826 253.942 166.383C253.942 166.452 253.939 166.521 253.937 166.591L253.942 166.594V168.043Z" fill="url(#paint5_linear)"/>
<path d="M279.24 62.6951H250.037V58.3073C250.037 53.0155 254.371 48.6461 259.656 48.8334C261.944 48.9163 264.12 49.8417 265.767 51.432C267.415 53.0223 268.417 55.1654 268.581 57.4498C268.581 57.4555 268.583 57.461 268.587 57.4656C268.59 57.4701 268.595 57.4735 268.6 57.4753C268.606 57.4771 268.612 57.4772 268.617 57.4756C268.622 57.474 268.627 57.4708 268.631 57.4663C269.431 56.5282 270.499 55.8581 271.691 55.5462C272.883 55.2344 274.143 55.2959 275.299 55.7223C276.455 56.1488 277.453 56.9198 278.158 57.9314C278.862 58.9429 279.24 60.1464 279.24 61.3795C279.24 61.4348 279.237 61.4894 279.236 61.5443L279.24 61.5473L279.24 62.6951Z" fill="url(#paint6_linear)"/>
<path d="M431.785 60.9879H461.913V56.4611C461.913 51.0017 457.442 46.4938 451.989 46.6871C449.629 46.7726 447.384 47.7274 445.684 49.3681C443.985 51.0087 442.951 53.2197 442.781 55.5764C442.781 55.5823 442.779 55.588 442.776 55.5927C442.772 55.5974 442.767 55.6009 442.762 55.6028C442.756 55.6047 442.75 55.6048 442.744 55.6032C442.739 55.6015 442.734 55.5982 442.73 55.5936C441.905 54.6258 440.803 53.9344 439.573 53.6127C438.343 53.2909 437.044 53.3544 435.851 53.7944C434.658 54.2344 433.628 55.0299 432.901 56.0735C432.174 57.1172 431.785 58.3588 431.785 59.631C431.785 59.688 431.787 59.7444 431.789 59.801L431.785 59.8041V60.9879Z" fill="url(#paint7_linear)"/>
<path d="M488.013 91.359H506.175V88.6302C506.18 87.847 506.028 87.0707 505.729 86.3472C505.429 85.6238 504.987 84.968 504.429 84.4186C503.871 83.8691 503.208 83.4373 502.481 83.1487C501.753 82.8601 500.975 82.7205 500.192 82.7383C498.77 82.7898 497.416 83.3654 496.392 84.3544C495.367 85.3434 494.744 86.6762 494.642 88.0969C494.642 88.1005 494.641 88.104 494.639 88.1069C494.636 88.1098 494.633 88.112 494.63 88.1132C494.627 88.1143 494.623 88.1143 494.619 88.1133C494.616 88.1122 494.613 88.1101 494.611 88.1072C494.114 87.5237 493.449 87.1069 492.708 86.9129C491.966 86.7189 491.183 86.7571 490.464 87.0223C489.745 87.2876 489.124 87.7671 488.686 88.3963C488.248 89.0254 488.013 89.7739 488.013 90.5408C488.013 90.5752 488.014 90.6091 488.015 90.6433L488.013 90.6452V91.359Z" fill="url(#paint8_linear)"/>
<path d="M396.388 79.3813C396.388 79.3813 411.753 67.2096 420.992 81.3983C430.231 95.5869 393.92 126.759 403.159 141.593C412.397 156.426 425.726 144.986 425.726 144.986" stroke="#329DF7" stroke-width="2.5" stroke-miterlimit="10"/>
<path d="M390 423C390.292 424.216 390.292 424.215 390.293 424.215C390.294 424.215 390.295 424.215 390.296 424.214C390.298 424.214 390.301 424.213 390.305 424.212C390.312 424.211 390.321 424.208 390.334 424.205C390.358 424.199 390.392 424.19 390.437 424.179C390.525 424.156 390.653 424.122 390.817 424.076C391.144 423.984 391.616 423.845 392.208 423.651C393.391 423.264 395.055 422.658 397 421.779C400.884 420.024 405.921 417.166 410.483 412.756C415.052 408.339 419.146 402.362 421.109 394.399C423.072 386.438 422.884 376.58 419.032 364.435L416.649 365.191C420.388 376.98 420.516 386.364 418.682 393.8C416.849 401.235 413.034 406.813 408.745 410.959C404.449 415.112 399.679 417.825 395.971 419.501C394.119 420.337 392.541 420.911 391.43 421.275C390.875 421.457 390.437 421.586 390.142 421.669C389.995 421.71 389.883 421.74 389.809 421.759C389.773 421.768 389.746 421.775 389.729 421.779C389.72 421.782 389.714 421.783 389.711 421.784C389.709 421.784 389.708 421.785 389.708 421.785C389.708 421.785 389.708 421.785 389.708 421.785C389.708 421.785 389.708 421.784 390 423ZM419.032 364.435C415.281 352.608 415.17 344.19 416.955 338.209C418.728 332.266 422.414 328.592 426.579 326.303C430.774 323.997 435.463 323.098 439.149 322.785C440.983 322.63 442.55 322.621 443.655 322.651C444.206 322.666 444.641 322.691 444.935 322.712C445.082 322.722 445.194 322.731 445.267 322.738C445.303 322.741 445.33 322.744 445.347 322.745C445.356 322.746 445.362 322.747 445.365 322.747C445.367 322.747 445.368 322.747 445.368 322.747C445.368 322.747 445.368 322.747 445.368 322.747C445.368 322.747 445.368 322.747 445.5 321.504C445.632 320.261 445.631 320.261 445.63 320.261C445.63 320.261 445.629 320.261 445.628 320.261C445.625 320.261 445.623 320.26 445.619 320.26C445.612 320.259 445.603 320.258 445.591 320.257C445.566 320.255 445.532 320.251 445.488 320.248C445.4 320.24 445.273 320.229 445.11 320.218C444.783 320.195 444.313 320.168 443.723 320.152C442.543 320.12 440.882 320.129 438.937 320.294C435.064 320.623 429.992 321.575 425.374 324.112C420.726 326.667 416.548 330.829 414.559 337.494C412.581 344.121 412.809 353.084 416.649 365.191L419.032 364.435Z" fill="#329DF7"/>
<path d="M490.761 215.734C490.761 215.734 490.175 280.255 456.228 278.535C422.281 276.815 448.493 223.07 426.148 211.461" stroke="#329DF7" stroke-width="2.5" stroke-miterlimit="10"/>
<path d="M351.852 250.028C351.852 250.028 344.932 283.694 318.147 271.942C287.097 258.319 312.616 226.281 312.616 226.281" fill="url(#paint9_linear)"/>
<path d="M399.643 177.554C399.643 177.554 436.247 185.341 426.148 211.461C419.096 229.703 389.892 219.193 389.892 219.193" fill="url(#paint10_linear)"/>
<path d="M318.147 271.942C300.386 325.257 343.07 306.339 345.649 362.617C348.227 418.896 300.386 425.603 300.386 425.603C300.386 425.603 245.096 432.174 272.597 361.947C300.099 291.72 249.107 299.746 249.107 299.746" stroke="#329DF7" stroke-width="2.5" stroke-miterlimit="10"/>
<path d="M410.341 202.025C413.034 190.527 408.244 179.571 399.643 177.554C391.041 175.538 381.886 183.224 379.193 194.723C376.501 206.221 381.291 217.177 389.892 219.193C398.493 221.21 407.648 213.523 410.341 202.025Z" fill="#F4F4F4"/>
<path d="M351.852 250.028C354.415 245.788 347.71 237.035 336.875 230.478C326.04 223.92 315.179 222.041 312.616 226.281C310.053 230.521 316.759 239.274 327.593 245.831C338.428 252.389 349.289 254.268 351.852 250.028Z" fill="#F4F4F4"/>
<path d="M350.077 228.931C350.781 227.624 350.292 225.994 348.987 225.29C347.681 224.586 346.052 225.075 345.348 226.381L339.233 237.737C338.53 239.043 339.018 240.673 340.324 241.377C341.63 242.081 343.258 241.593 343.962 240.286L350.077 228.931Z" fill="url(#paint11_linear)"/>
<path d="M336.121 220.565C336.825 219.259 336.337 217.629 335.031 216.925C333.725 216.221 332.096 216.709 331.393 218.016L325.278 229.371C324.574 230.678 325.062 232.308 326.368 233.012C327.674 233.716 329.303 233.227 330.007 231.921L336.121 220.565Z" fill="url(#paint12_linear)"/>
<path d="M400.472 188.856L393.882 187.311C392.583 187.006 391.282 187.813 390.978 189.114C390.673 190.414 391.48 191.716 392.78 192.02L399.369 193.565C400.669 193.87 401.969 193.063 402.274 191.762C402.578 190.462 401.772 189.161 400.472 188.856Z" fill="url(#paint13_linear)"/>
<path d="M396.835 202.648L389.724 200.981C388.424 200.676 387.124 201.483 386.819 202.784L386.768 203.001C386.464 204.302 387.27 205.603 388.57 205.908L395.681 207.575C396.981 207.879 398.281 207.072 398.586 205.772L398.637 205.554C398.941 204.254 398.134 202.953 396.835 202.648Z" fill="url(#paint14_linear)"/>
<path d="M40.4439 149.976C46.9302 149.976 52.1885 144.715 52.1885 138.225C52.1885 131.735 46.9302 126.473 40.4439 126.473C33.9575 126.473 28.6992 131.735 28.6992 138.225C28.6992 144.715 33.9575 149.976 40.4439 149.976Z" stroke="#DAEFF7" stroke-width="6" stroke-miterlimit="10"/>
<path d="M345.749 18.7687C350.336 18.7687 354.054 15.0484 354.054 10.4592C354.054 5.87007 350.336 2.14981 345.749 2.14981C341.163 2.14981 337.445 5.87007 337.445 10.4592C337.445 15.0484 341.163 18.7687 345.749 18.7687Z" stroke="#DAEFF7" stroke-width="4" stroke-miterlimit="10"/>
<path d="M530.956 204.278C535.542 204.278 539.26 200.558 539.26 195.968C539.26 191.379 535.542 187.659 530.956 187.659C526.369 187.659 522.651 191.379 522.651 195.968C522.651 200.558 526.369 204.278 530.956 204.278Z" stroke="#DAEFF7" stroke-width="3" stroke-miterlimit="10"/>
<path d="M738.247 247.975C744.734 247.975 749.992 242.714 749.992 236.224C749.992 229.734 744.734 224.472 738.247 224.472C731.761 224.472 726.503 229.734 726.503 236.224C726.503 242.714 731.761 247.975 738.247 247.975Z" stroke="#DAEFF7" stroke-width="7" stroke-miterlimit="10"/>
<path d="M240.802 481.85C245.388 481.85 249.107 478.13 249.107 473.541C249.107 468.952 245.388 465.231 240.802 465.231C236.215 465.231 232.497 468.952 232.497 473.541C232.497 478.13 236.215 481.85 240.802 481.85Z" stroke="#DAEFF7" stroke-width="5" stroke-miterlimit="10"/>
</g>
<defs>
<linearGradient id="paint0_linear" x1="93.7283" y1="88.479" x2="93.7283" y2="406.998" gradientUnits="userSpaceOnUse">
<stop stop-color="#6AB4F6"/>
<stop offset="1" stop-color="#3DDEED"/>
</linearGradient>
<linearGradient id="paint1_linear" x1="606.392" y1="88.479" x2="606.392" y2="406.998" gradientUnits="userSpaceOnUse">
<stop stop-color="#6AB4F6"/>
<stop offset="1" stop-color="#3DDEED"/>
</linearGradient>
<linearGradient id="paint2_linear" x1="368.714" y1="75.0333" x2="368.714" y2="425.603" gradientUnits="userSpaceOnUse">
<stop stop-color="#6AB4F6"/>
<stop offset="1" stop-color="#3DDEED"/>
</linearGradient>
<linearGradient id="paint3_linear" x1="482.029" y1="123.678" x2="482.029" y2="152.772" gradientUnits="userSpaceOnUse">
<stop stop-color="#DAEFF7"/>
<stop offset="1" stop-color="#DAEFF7" stop-opacity="0"/>
</linearGradient>
<linearGradient id="paint4_linear" x1="293.411" y1="79.8935" x2="293.411" y2="115" gradientUnits="userSpaceOnUse">
<stop stop-color="#DAEFF7"/>
<stop offset="1" stop-color="#DAEFF7" stop-opacity="0"/>
</linearGradient>
<linearGradient id="paint5_linear" x1="235.513" y1="150.541" x2="235.513" y2="168.043" gradientUnits="userSpaceOnUse">
<stop stop-color="#DAEFF7"/>
<stop offset="1" stop-color="#DAEFF7" stop-opacity="0"/>
</linearGradient>
<linearGradient id="paint6_linear" x1="264.638" y1="48.8276" x2="264.638" y2="62.6951" gradientUnits="userSpaceOnUse">
<stop stop-color="#DAEFF7"/>
<stop offset="1" stop-color="#DAEFF7" stop-opacity="0"/>
</linearGradient>
<linearGradient id="paint7_linear" x1="446.849" y1="46.6811" x2="446.849" y2="60.9879" gradientUnits="userSpaceOnUse">
<stop stop-color="#DAEFF7"/>
<stop offset="1" stop-color="#DAEFF7" stop-opacity="0"/>
</linearGradient>
<linearGradient id="paint8_linear" x1="497.094" y1="82.7368" x2="497.094" y2="91.359" gradientUnits="userSpaceOnUse">
<stop stop-color="#DAEFF7"/>
<stop offset="1" stop-color="#DAEFF7" stop-opacity="0"/>
</linearGradient>
<linearGradient id="paint9_linear" x1="317" y1="276" x2="330" y2="246" gradientUnits="userSpaceOnUse">
<stop stop-color="#F4F4F4"/>
<stop offset="1" stop-color="#D8D8D8"/>
</linearGradient>
<linearGradient id="paint10_linear" x1="428" y1="212.5" x2="391.5" y2="201.5" gradientUnits="userSpaceOnUse">
<stop stop-color="#F4F4F4"/>
<stop offset="1" stop-color="#D8D8D8"/>
</linearGradient>
<linearGradient id="paint11_linear" x1="348.987" y1="225.29" x2="340.316" y2="241.373" gradientUnits="userSpaceOnUse">
<stop stop-color="#3DDEED"/>
<stop offset="1" stop-color="#329DF7"/>
</linearGradient>
<linearGradient id="paint12_linear" x1="335.031" y1="216.925" x2="326.361" y2="233.007" gradientUnits="userSpaceOnUse">
<stop stop-color="#3DDEED"/>
<stop offset="1" stop-color="#329DF7"/>
</linearGradient>
<linearGradient id="paint13_linear" x1="391" y1="189" x2="402.499" y2="192.503" gradientUnits="userSpaceOnUse">
<stop stop-color="#329DF7"/>
<stop offset="1" stop-color="#0F4D81"/>
</linearGradient>
<linearGradient id="paint14_linear" x1="387" y1="202.5" x2="398.499" y2="206.503" gradientUnits="userSpaceOnUse">
<stop stop-color="#329DF7"/>
<stop offset="1" stop-color="#003969"/>
</linearGradient>
<clipPath id="clip0">
<rect width="753" height="484" fill="white"/>
</clipPath>
</defs>
</svg>
