<svg width="13" height="14" viewBox="0 0 13 14" fill="none" xmlns="http://www.w3.org/2000/svg">
<path d="M5 0.549995C3.05 0.549995 1.5 2.09999 1.5 4.04999C1.5 5.25 2.1 6.34999 3.05 6.94999C1.25 7.64999 0 9.44999 0 11.5H1C1 9.29999 2.8 7.49999 5 7.49999C5.3 7.49999 5.55 7.54999 5.8 7.6C5.823 7.5685 5.8535 7.54149 5.878 7.51049C5.31029 8.21608 5.00053 9.09437 5 9.99999C5 12.2 6.8 14 9 14C11.2 14 13 12.2 13 9.99999C13 7.79999 11.2 5.99999 9 5.99999C8.56777 6.00085 8.13859 6.07246 7.7295 6.21199C8.14269 5.69961 8.40203 5.0805 8.47737 4.42659C8.55272 3.77269 8.44098 3.11082 8.15514 2.51789C7.86931 1.92496 7.4211 1.4253 6.8626 1.07696C6.3041 0.728612 5.65822 0.545882 5 0.549995ZM5 1.49999C6.4 1.49999 7.5 2.59999 7.5 3.99999C7.5 5.39999 6.4 6.49999 5 6.49999C3.6 6.49999 2.5 5.39999 2.5 3.99999C2.5 2.59999 3.6 1.49999 5 1.49999ZM6.6375 6.78299L6.5945 6.81449C6.60876 6.80389 6.62309 6.79339 6.6375 6.78299ZM9 6.99999C10.65 6.99999 12 8.34999 12 9.99999C12 11.65 10.65 13 9 13C7.35 13 6 11.65 6 9.99999C6 8.34999 7.35 6.99999 9 6.99999ZM8.5 7.99999V10.3L7.65 11.15L8.35 11.85L9.5 10.7V7.99999H8.5Z" fill="#212121"/>
</svg>
