<svg width="16" height="15" viewBox="0 0 16 15" fill="none" xmlns="http://www.w3.org/2000/svg">
<path d="M1.25 11.25H7.5V13.5H5V14.5H11V13.5H8.5V11.25H14.75C14.9488 11.2498 15.1395 11.1707 15.2801 11.0301C15.4207 10.8895 15.4998 10.6988 15.5 10.5V1.25C15.4998 1.05116 15.4207 0.860528 15.2801 0.719926C15.1395 0.579324 14.9488 0.500232 14.75 0.5H1.25C1.05116 0.500232 0.860528 0.579324 0.719926 0.719926C0.579324 0.860528 0.500232 1.05116 0.5 1.25V10.5C0.500232 10.6988 0.579324 10.8895 0.719926 11.0301C0.860528 11.1707 1.05116 11.2498 1.25 11.25ZM1.5 1.5H14.5V10.25H1.5V1.5Z" fill="#212121"/>
</svg>
