<svg width="36" height="36" viewBox="0 0 36 36" fill="none" xmlns="http://www.w3.org/2000/svg">
<path d="M18.0003 2.25C15.5253 2.25 13.5003 4.275 13.5003 6.75C13.5003 8.02012 14.0493 9.16313 14.9065 9.98438C14.6409 10.1715 14.3938 10.3836 14.1685 10.6178C13.2235 11.619 12.634 12.9555 12.3753 14.4135H12.4102L10.1602 25.6635L9.87891 27H14.6253V33.75H16.8753V27H19.1253V33.75H21.3753V27H26.1217L25.8404 25.6635L23.5904 14.4135C23.3317 13.0253 22.7692 11.7023 21.832 10.6875C21.598 10.4285 21.3391 10.193 21.0592 9.98438C21.9288 9.16313 22.5003 8.02912 22.5003 6.75C22.5003 4.275 20.4753 2.25 18.0003 2.25ZM18.0003 4.5C19.2569 4.5 20.2503 5.49338 20.2503 6.75C20.2503 8.00663 19.2569 9 18.0003 9C16.7437 9 15.7503 8.00663 15.7503 6.75C15.7503 5.49338 16.7437 4.5 18.0003 4.5ZM18.0003 11.25C18.9318 11.25 19.6 11.6055 20.1805 12.2344C20.7599 12.8632 21.2167 13.7947 21.4102 14.8365L23.3789 24.75H12.6228L14.5915 14.8354H14.6253C14.8233 13.7104 15.2542 12.7654 15.8212 12.1646C16.387 11.5616 17.0474 11.25 18.0003 11.25Z" fill="#329DF7"/>
</svg>
