<svg width="36" height="36" viewBox="0 0 36 36" fill="none" xmlns="http://www.w3.org/2000/svg">
<path d="M10.125 7.875C6.4125 7.875 3.375 10.9125 3.375 14.625C3.375 16.857 4.47412 18.8438 6.15263 20.0745C3.186 21.546 1.125 24.597 1.125 28.125H3.375C3.375 24.3855 6.3855 21.375 10.125 21.375C13.8645 21.375 16.875 24.3855 16.875 28.125H19.125C19.125 24.3855 22.1355 21.375 25.875 21.375C29.6145 21.375 32.625 24.3855 32.625 28.125H34.875C34.875 24.5959 32.814 21.546 29.8474 20.0745C30.7063 19.4486 31.4055 18.6289 31.8881 17.682C32.3708 16.7352 32.6232 15.6878 32.625 14.625C32.625 10.9125 29.5875 7.875 25.875 7.875C22.1625 7.875 19.125 10.9125 19.125 14.625C19.125 16.857 20.2241 18.8438 21.9026 20.0745C20.2589 20.8826 18.8984 22.1695 18 23.7656C17.1016 22.1695 15.7411 20.8826 14.0974 20.0745C14.9563 19.4486 15.6555 18.6289 16.1381 17.682C16.6208 16.7352 16.8732 15.6878 16.875 14.625C16.875 10.9125 13.8375 7.875 10.125 7.875ZM10.125 10.125C12.6259 10.125 14.625 12.1241 14.625 14.625C14.625 17.1259 12.6259 19.125 10.125 19.125C7.62413 19.125 5.625 17.1259 5.625 14.625C5.625 12.1241 7.62413 10.125 10.125 10.125ZM25.875 10.125C28.3759 10.125 30.375 12.1241 30.375 14.625C30.375 17.1259 28.3759 19.125 25.875 19.125C23.3741 19.125 21.375 17.1259 21.375 14.625C21.375 12.1241 23.3741 10.125 25.875 10.125Z" fill="#329DF7"/>
</svg>
