<svg width="14" height="10" viewBox="0 0 14 10" fill="none" xmlns="http://www.w3.org/2000/svg">
<path d="M4.75 0C4.28644 0.00184321 3.84239 0.18681 3.5146 0.5146C3.18681 0.84239 3.00184 1.28644 3 1.75C3 2.711 3.789 3.5 4.75 3.5C5.711 3.5 6.5 2.711 6.5 1.75C6.5 0.789 5.711 0 4.75 0ZM9.25 0C8.78644 0.00184321 8.34239 0.18681 8.0146 0.5146C7.68681 0.84239 7.50184 1.28644 7.5 1.75C7.5 2.711 8.289 3.5 9.25 3.5C10.211 3.5 11 2.711 11 1.75C11 0.789 10.211 0 9.25 0ZM4.75 1C5.17 1 5.5 1.33 5.5 1.75C5.5 2.17 5.17 2.5 4.75 2.5C4.33 2.5 4 2.17 4 1.75C4 1.33 4.33 1 4.75 1ZM9.25 1C9.67 1 10 1.33 10 1.75C10 2.17 9.67 2.5 9.25 2.5C8.83 2.5 8.5 2.17 8.5 1.75C8.5 1.33 8.83 1 9.25 1ZM2.5 3C1.4 3 0.5 3.9 0.5 5C0.5 5.5565 0.7385 6.0585 1.1095 6.422C0.769162 6.65166 0.490147 6.96107 0.296766 7.32326C0.103385 7.68544 0.00150386 8.08942 0 8.5H1C1 7.666 1.666 7 2.5 7C3.334 7 4 7.666 4 8.5H5C4.9985 8.08942 4.89662 7.68544 4.70323 7.32326C4.50985 6.96107 4.23084 6.65166 3.8905 6.422C4.2615 6.0585 4.5 5.557 4.5 5C4.5 3.9 3.6 3 2.5 3ZM5 8.5C4.6875 8.918 4.5 9.4435 4.5 10H5.5C5.5 9.166 6.166 8.5 7 8.5C7.834 8.5 8.5 9.166 8.5 10H9.5C9.49914 9.45921 9.32378 8.93314 9 8.5C8.83 8.2735 8.625 8.08 8.3905 7.922C8.7615 7.5585 9 7.057 9 6.5C9 5.4 8.1 4.5 7 4.5C5.9 4.5 5 5.4 5 6.5C5 7.0565 5.2385 7.5585 5.6095 7.922C5.37544 8.07923 5.16941 8.2746 5 8.5ZM9 8.5H10C10 7.666 10.666 7 11.5 7C12.334 7 13 7.666 13 8.5H14C13.9985 8.08942 13.8966 7.68544 13.7032 7.32326C13.5099 6.96107 13.2308 6.65166 12.8905 6.422C13.2615 6.0585 13.5 5.557 13.5 5C13.5 3.9 12.6 3 11.5 3C10.4 3 9.5 3.9 9.5 5C9.5 5.5565 9.7385 6.0585 10.1095 6.422C9.76916 6.65166 9.49015 6.96107 9.29677 7.32326C9.10338 7.68544 9.0015 8.08942 9 8.5ZM2.5 4C3.0585 4 3.5 4.4415 3.5 5C3.5 5.5585 3.0585 6 2.5 6C1.9415 6 1.5 5.5585 1.5 5C1.5 4.4415 1.9415 4 2.5 4ZM11.5 4C12.0585 4 12.5 4.4415 12.5 5C12.5 5.5585 12.0585 6 11.5 6C10.9415 6 10.5 5.5585 10.5 5C10.5 4.4415 10.9415 4 11.5 4ZM7 5.5C7.5585 5.5 8 5.9415 8 6.5C8 7.0585 7.5585 7.5 7 7.5C6.4415 7.5 6 7.0585 6 6.5C6 5.9415 6.4415 5.5 7 5.5Z" fill="#212121"/>
</svg>
