<svg width="36" height="36" viewBox="0 0 36 36" fill="none" xmlns="http://www.w3.org/2000/svg">
<path d="M12.9375 6.75C11.8945 6.75415 10.8954 7.17032 10.1578 7.90785C9.42032 8.64538 9.00415 9.64449 9 10.6875C9 12.8498 10.7752 14.625 12.9375 14.625C15.0998 14.625 16.875 12.8498 16.875 10.6875C16.875 8.52525 15.0998 6.75 12.9375 6.75ZM23.0625 6.75C22.0195 6.75415 21.0204 7.17032 20.2829 7.90785C19.5453 8.64538 19.1291 9.64449 19.125 10.6875C19.125 12.8498 20.9002 14.625 23.0625 14.625C25.2248 14.625 27 12.8498 27 10.6875C27 8.52525 25.2248 6.75 23.0625 6.75ZM12.9375 9C13.8825 9 14.625 9.7425 14.625 10.6875C14.625 11.6325 13.8825 12.375 12.9375 12.375C11.9925 12.375 11.25 11.6325 11.25 10.6875C11.25 9.7425 11.9925 9 12.9375 9ZM23.0625 9C24.0075 9 24.75 9.7425 24.75 10.6875C24.75 11.6325 24.0075 12.375 23.0625 12.375C22.1175 12.375 21.375 11.6325 21.375 10.6875C21.375 9.7425 22.1175 9 23.0625 9ZM7.875 13.5C5.4 13.5 3.375 15.525 3.375 18C3.375 19.2521 3.91162 20.3816 4.74637 21.1995C3.98061 21.7162 3.35283 22.4124 2.91772 23.2273C2.48262 24.0422 2.25338 24.9512 2.25 25.875H4.5C4.5 23.9985 5.9985 22.5 7.875 22.5C9.7515 22.5 11.25 23.9985 11.25 25.875H13.5C13.4966 24.9512 13.2674 24.0422 12.8323 23.2273C12.3972 22.4124 11.7694 21.7162 11.0036 21.1995C11.8384 20.3816 12.375 19.2533 12.375 18C12.375 15.525 10.35 13.5 7.875 13.5ZM13.5 25.875C12.7969 26.8155 12.375 27.9979 12.375 29.25H14.625C14.625 27.3735 16.1235 25.875 18 25.875C19.8765 25.875 21.375 27.3735 21.375 29.25H23.625C23.6231 28.0332 23.2285 26.8496 22.5 25.875C22.1175 25.3654 21.6562 24.93 21.1286 24.5745C21.9634 23.7566 22.5 22.6283 22.5 21.375C22.5 18.9 20.475 16.875 18 16.875C15.525 16.875 13.5 18.9 13.5 21.375C13.5 22.6271 14.0366 23.7566 14.8714 24.5745C14.3447 24.9283 13.8812 25.3679 13.5 25.875ZM22.5 25.875H24.75C24.75 23.9985 26.2485 22.5 28.125 22.5C30.0015 22.5 31.5 23.9985 31.5 25.875H33.75C33.7466 24.9512 33.5174 24.0422 33.0823 23.2273C32.6472 22.4124 32.0194 21.7162 31.2536 21.1995C32.0884 20.3816 32.625 19.2533 32.625 18C32.625 15.525 30.6 13.5 28.125 13.5C25.65 13.5 23.625 15.525 23.625 18C23.625 19.2521 24.1616 20.3816 24.9964 21.1995C24.2306 21.7162 23.6028 22.4124 23.1677 23.2273C22.7326 24.0422 22.5034 24.9512 22.5 25.875ZM7.875 15.75C9.13163 15.75 10.125 16.7434 10.125 18C10.125 19.2566 9.13163 20.25 7.875 20.25C6.61837 20.25 5.625 19.2566 5.625 18C5.625 16.7434 6.61837 15.75 7.875 15.75ZM28.125 15.75C29.3816 15.75 30.375 16.7434 30.375 18C30.375 19.2566 29.3816 20.25 28.125 20.25C26.8684 20.25 25.875 19.2566 25.875 18C25.875 16.7434 26.8684 15.75 28.125 15.75ZM18 19.125C19.2566 19.125 20.25 20.1184 20.25 21.375C20.25 22.6316 19.2566 23.625 18 23.625C16.7434 23.625 15.75 22.6316 15.75 21.375C15.75 20.1184 16.7434 19.125 18 19.125Z" fill="#329DF7"/>
</svg>
