<svg width="14" height="14" viewBox="0 0 14 14" fill="none" xmlns="http://www.w3.org/2000/svg">
<path d="M5.5 0.5C3.5725 0.5 2 2.0725 2 4C2 5.205 2.615 6.275 3.547 6.9065C1.7635 7.6715 0.5 9.4415 0.5 11.5H1.5C1.5 9.285 3.285 7.5 5.5 7.5C6.5725 7.5 7.5315 7.9395 8.25 8.625L5.8905 10.9845L5.8595 11.1405L5.5155 12.9065L5.3595 13.6405L6.094 13.4845L7.859 13.1405L8.0155 13.1095L13.0625 8.0625C13.6425 7.4825 13.6425 6.5175 13.0625 5.9375C12.7826 5.65986 12.4051 5.50279 12.0109 5.49989C11.6167 5.497 11.237 5.6485 10.953 5.922L8.969 7.9065C8.52823 7.48432 8.0146 7.14551 7.453 6.9065C7.92874 6.58534 8.31852 6.15247 8.58821 5.64577C8.85791 5.13908 8.99929 4.574 9 4C9 2.0725 7.4275 0.5 5.5 0.5ZM5.5 1.5C6.8865 1.5 8 2.6135 8 4C8 5.3865 6.8865 6.5 5.5 6.5C4.1135 6.5 3 5.3865 3 4C3 2.6135 4.1135 1.5 5.5 1.5ZM12 6.5C12.127 6.5 12.26 6.541 12.3595 6.6405C12.4067 6.68606 12.4443 6.74067 12.4699 6.80106C12.4955 6.86145 12.5088 6.92639 12.5088 6.992C12.5088 7.05761 12.4955 7.12255 12.4699 7.18294C12.4443 7.24333 12.4067 7.29794 12.3595 7.3435L7.5155 12.1875L6.625 12.375L6.8125 11.4845L11.6565 6.6405C11.756 6.541 11.873 6.5 12 6.5Z" fill="#8F8F8F"/>
</svg>
