<svg width="36" height="36" viewBox="0 0 36 36" fill="none" xmlns="http://www.w3.org/2000/svg">
<path d="M13.5 2.25C9.16313 2.25 5.625 5.78813 5.625 10.125C5.625 12.8363 7.00875 15.2437 9.10575 16.6646C5.09288 18.3859 2.25 22.3684 2.25 27H4.5C4.5 22.0163 8.51625 18 13.5 18C15.0469 18 16.488 18.405 17.7536 19.0901C16.4582 20.6921 15.751 22.6898 15.75 24.75C15.75 29.7068 19.7932 33.75 24.75 33.75C29.7068 33.75 33.75 29.7068 33.75 24.75C33.75 19.7932 29.7068 15.75 24.75 15.75C22.854 15.7516 21.0075 16.3547 19.476 17.4724C18.9706 17.162 18.4417 16.8916 17.8942 16.6635C18.9645 15.941 19.8414 14.9672 20.4482 13.8274C21.055 12.6875 21.3732 11.4163 21.375 10.125C21.375 5.78813 17.8369 2.25 13.5 2.25ZM13.5 4.5C16.6196 4.5 19.125 7.00537 19.125 10.125C19.125 13.2446 16.6196 15.75 13.5 15.75C10.3804 15.75 7.875 13.2446 7.875 10.125C7.875 7.00537 10.3804 4.5 13.5 4.5ZM24.75 18C28.4895 18 31.5 21.0105 31.5 24.75C31.5 28.4895 28.4895 31.5 24.75 31.5C21.0105 31.5 18 28.4895 18 24.75C18 21.0105 21.0105 18 24.75 18ZM22.1839 20.5661L20.565 22.185L23.1334 24.75L20.5661 27.3161L22.1839 28.9339L24.75 26.3666L27.3161 28.9339L28.9339 27.3161L26.3666 24.75L28.9339 22.1839L27.3161 20.5661L24.75 23.1334L22.1839 20.5661Z" fill="#329DF7"/>
</svg>
