<svg width="36" height="36" viewBox="0 0 36 36" fill="none" xmlns="http://www.w3.org/2000/svg">
<path d="M18 2.25C15.525 2.25 13.5 4.275 13.5 6.75C13.5 7.94925 13.9883 9.03487 14.7656 9.84375C12.6821 10.9946 11.25 13.2142 11.25 15.75V21.8318L11.5661 22.1839L13.5 24.1166V33.75H15.75V23.1682L15.4339 22.8161L13.5 20.8834V15.75C13.5 13.2536 15.5036 11.25 18 11.25C20.4964 11.25 22.5 13.2536 22.5 15.75V20.8834L20.5661 22.8161L20.25 23.1682V33.75H22.5V24.1166L24.4339 22.1839L24.75 21.8318V15.75C24.75 13.2142 23.3179 10.9946 21.2344 9.84375C22.042 9.01599 22.4959 7.90648 22.5 6.75C22.5 4.275 20.475 2.25 18 2.25ZM18 4.5C19.2566 4.5 20.25 5.49338 20.25 6.75C20.25 8.00663 19.2566 9 18 9C16.7434 9 15.75 8.00663 15.75 6.75C15.75 5.49338 16.7434 4.5 18 4.5Z" fill="#329DF7"/>
</svg>
