<svg width="14" height="14" viewBox="0 0 14 14" fill="none" xmlns="http://www.w3.org/2000/svg">
<path d="M5 0C3.05 0 1.5 1.55 1.5 3.5C1.5 4.7 2.1 5.8 3.05 6.4C1.25 7.15 0 8.95 0 11H1C1 8.8 2.8 7 5 7C5.7 7 6.35 7.2 6.9 7.5C6.35 8.2 6 9.05 6 10C6 12.2 7.8 14 10 14C12.2 14 14 12.2 14 10C14 7.8 12.2 6 10 6C9.15 6 8.3 6.3 7.65 6.75C7.45 6.6 7.2 6.5 6.95 6.4C7.9 5.75 8.5 4.7 8.5 3.5C8.5 1.55 6.95 0 5 0ZM5 1C6.4 1 7.5 2.1 7.5 3.5C7.5 4.9 6.4 6 5 6C3.6 6 2.5 4.9 2.5 3.5C2.5 2.1 3.6 1 5 1ZM10 7C11.65 7 13 8.35 13 10C13 11.65 11.65 13 10 13C8.35 13 7 11.65 7 10C7 8.35 8.35 7 10 7ZM8 9.5V10.5H12V9.5H8Z" fill="#8F8F8F"/>
</svg>
