<svg width="36" height="36" viewBox="0 0 36 36" fill="none" xmlns="http://www.w3.org/2000/svg">
<path d="M15.75 4.5C11.3625 4.5 7.875 7.9875 7.875 12.375C7.875 15.075 9.225 17.55 11.3625 18.9C7.3125 20.5875 4.5 24.6375 4.5 29.25H6.75C6.75 24.3 10.8 20.25 15.75 20.25C17.325 20.25 18.7875 20.7 20.025 21.375C18.7875 22.95 18 24.8625 18 27C18 31.95 22.05 36 27 36C31.95 36 36 31.95 36 27C36 22.05 31.95 18 27 18C25.0875 18 23.175 18.675 21.7125 19.6875C21.2625 19.35 20.7 19.125 20.1375 18.9C22.275 17.4375 23.625 15.075 23.625 12.375C23.625 7.9875 20.1375 4.5 15.75 4.5ZM15.75 6.75C18.9 6.75 21.375 9.225 21.375 12.375C21.375 15.525 18.9 18 15.75 18C12.6 18 10.125 15.525 10.125 12.375C10.125 9.225 12.6 6.75 15.75 6.75ZM27 20.25C30.7125 20.25 33.75 23.2875 33.75 27C33.75 30.7125 30.7125 33.75 27 33.75C23.2875 33.75 20.25 30.7125 20.25 27C20.25 23.2875 23.2875 20.25 27 20.25ZM22.5 25.875V28.125H31.5V25.875H22.5Z" fill="#329DF7"/>
</svg>
