<svg width="36" height="36" viewBox="0 0 36 36" fill="none" xmlns="http://www.w3.org/2000/svg">
<path d="M18 3.375C16.5848 3.375 15.579 4.37625 15.0817 5.625H6.75V31.5H29.25V5.625H20.9183C20.421 4.37625 19.4152 3.375 18 3.375ZM18 5.625C18.6244 5.625 19.125 6.12562 19.125 6.75V7.875H22.5V10.125H13.5V7.875H16.875V6.75C16.875 6.12562 17.3756 5.625 18 5.625ZM9 7.875H11.25V12.375H24.75V7.875H27V29.25H9V7.875ZM16.875 15.75V19.125H13.5V21.375H16.875V24.75H19.125V21.375H22.5V19.125H19.125V15.75H16.875Z" fill="#329DF7"/>
</svg>
